# xmcd
#
# Track frame offsets: 
#        150
#        13493
#        26953
#        37705
#        48483
#        64868
#        81683
#        94055
#        108828
#
# Disc length: 1687 seconds
#
# Revision: 5
# Processed by: cddbd v1.5.2PL0 Copyright (c) Steve Scherf et al.
# Submitted via: ExactAudioCopy v1.3
#
DISCID=76069509
DTITLE=Ronnie Milsap - Greatest Hits
DYEAR=1988
DGENRE=Country
TTITLE0=(I'd Be) A Legend In My Time
TTITLE1=(I'm A) Stand By My Woman Man
TTITLE2=Pure Love
TTITLE3=Daydreams About Night Things
TTITLE4=It Was Almost Like A Song
TTITLE5=Smokey Mountain Rain
TTITLE6=Please Don't Tell Me How The Story Ends
TTITLE7=Back On My Mind Again
TTITLE8=What A Difference You've Made In My Life
EXTD=
EXTT0=
EXTT1=
EXTT2=
EXTT3=
EXTT4=
EXTT5=
EXTT6=
EXTT7=
EXTT8=
PLAYORDER=
